<mxfile host="Electron" modified="2023-11-26T02:46:24.410Z" agent="Mozilla/5.0 (X11; Linux x86_64) AppleWebKit/537.36 (KHTML, like Gecko) draw.io/22.1.2 Chrome/114.0.5735.289 Electron/25.9.4 Safari/537.36" etag="nRTWnrv4BvDniFTzVOqG" version="22.1.2" type="device">
  <diagram name="Page-1" id="7-fWE4WoKvvkptcGo313">
    <mxGraphModel dx="2191" dy="843" grid="1" gridSize="10" guides="1" tooltips="1" connect="1" arrows="1" fold="1" page="1" pageScale="1" pageWidth="827" pageHeight="1169" math="0" shadow="0">
      <root>
        <mxCell id="0" />
        <mxCell id="1" parent="0" />
        <mxCell id="cKcwlgue6PO4gRso2J9z-1" value="&lt;font style=&quot;font-size: 17px;&quot;&gt;Bug Report&lt;/font&gt;" style="rounded=1;whiteSpace=wrap;html=1;" vertex="1" parent="1">
          <mxGeometry x="314" y="340" width="100" height="40" as="geometry" />
        </mxCell>
        <mxCell id="cKcwlgue6PO4gRso2J9z-10" style="edgeStyle=orthogonalEdgeStyle;rounded=0;orthogonalLoop=1;jettySize=auto;html=1;exitX=0.5;exitY=0;exitDx=0;exitDy=0;" edge="1" parent="1" source="cKcwlgue6PO4gRso2J9z-2" target="cKcwlgue6PO4gRso2J9z-5">
          <mxGeometry relative="1" as="geometry" />
        </mxCell>
        <mxCell id="cKcwlgue6PO4gRso2J9z-2" value="&lt;font style=&quot;font-size: 17px;&quot;&gt;File Path&lt;/font&gt;" style="rounded=1;whiteSpace=wrap;html=1;" vertex="1" parent="1">
          <mxGeometry x="-70" y="350" width="80" height="30" as="geometry" />
        </mxCell>
        <mxCell id="cKcwlgue6PO4gRso2J9z-11" style="edgeStyle=orthogonalEdgeStyle;rounded=0;orthogonalLoop=1;jettySize=auto;html=1;exitX=0.5;exitY=0;exitDx=0;exitDy=0;entryX=0.5;entryY=1;entryDx=0;entryDy=0;" edge="1" parent="1" source="cKcwlgue6PO4gRso2J9z-3" target="cKcwlgue6PO4gRso2J9z-4">
          <mxGeometry relative="1" as="geometry" />
        </mxCell>
        <mxCell id="cKcwlgue6PO4gRso2J9z-3" value="&lt;font style=&quot;font-size: 17px;&quot;&gt;Metod&lt;/font&gt;" style="rounded=1;whiteSpace=wrap;html=1;" vertex="1" parent="1">
          <mxGeometry x="80" y="350" width="70" height="30" as="geometry" />
        </mxCell>
        <mxCell id="cKcwlgue6PO4gRso2J9z-13" style="edgeStyle=orthogonalEdgeStyle;rounded=0;orthogonalLoop=1;jettySize=auto;html=1;exitX=0.5;exitY=0;exitDx=0;exitDy=0;" edge="1" parent="1" source="cKcwlgue6PO4gRso2J9z-4">
          <mxGeometry relative="1" as="geometry">
            <mxPoint x="40" y="230" as="targetPoint" />
          </mxGeometry>
        </mxCell>
        <mxCell id="cKcwlgue6PO4gRso2J9z-4" value="&lt;font style=&quot;font-size: 17px;&quot;&gt;Embedding&lt;/font&gt;" style="rounded=1;whiteSpace=wrap;html=1;" vertex="1" parent="1">
          <mxGeometry x="62.5" y="290" width="105" height="40" as="geometry" />
        </mxCell>
        <mxCell id="cKcwlgue6PO4gRso2J9z-12" style="edgeStyle=orthogonalEdgeStyle;rounded=0;orthogonalLoop=1;jettySize=auto;html=1;exitX=0.5;exitY=0;exitDx=0;exitDy=0;" edge="1" parent="1" source="cKcwlgue6PO4gRso2J9z-5" target="cKcwlgue6PO4gRso2J9z-7">
          <mxGeometry relative="1" as="geometry" />
        </mxCell>
        <mxCell id="cKcwlgue6PO4gRso2J9z-5" value="&lt;font style=&quot;font-size: 17px;&quot;&gt;Embedding&lt;/font&gt;" style="rounded=1;whiteSpace=wrap;html=1;" vertex="1" parent="1">
          <mxGeometry x="-82.5" y="290" width="105" height="40" as="geometry" />
        </mxCell>
        <mxCell id="cKcwlgue6PO4gRso2J9z-17" style="edgeStyle=orthogonalEdgeStyle;rounded=0;orthogonalLoop=1;jettySize=auto;html=1;exitX=0.5;exitY=0;exitDx=0;exitDy=0;entryX=0.5;entryY=1;entryDx=0;entryDy=0;" edge="1" parent="1" source="cKcwlgue6PO4gRso2J9z-6" target="cKcwlgue6PO4gRso2J9z-15">
          <mxGeometry relative="1" as="geometry" />
        </mxCell>
        <mxCell id="cKcwlgue6PO4gRso2J9z-6" value="&lt;font style=&quot;font-size: 17px;&quot;&gt;Embedding&lt;/font&gt;" style="rounded=1;whiteSpace=wrap;html=1;" vertex="1" parent="1">
          <mxGeometry x="309" y="285" width="105" height="40" as="geometry" />
        </mxCell>
        <mxCell id="cKcwlgue6PO4gRso2J9z-16" style="edgeStyle=orthogonalEdgeStyle;rounded=0;orthogonalLoop=1;jettySize=auto;html=1;exitX=0.5;exitY=0;exitDx=0;exitDy=0;entryX=0.5;entryY=1;entryDx=0;entryDy=0;" edge="1" parent="1" source="cKcwlgue6PO4gRso2J9z-7" target="cKcwlgue6PO4gRso2J9z-14">
          <mxGeometry relative="1" as="geometry" />
        </mxCell>
        <mxCell id="cKcwlgue6PO4gRso2J9z-7" value="&lt;font style=&quot;font-size: 17px;&quot;&gt;Concate&lt;/font&gt;" style="rounded=0;whiteSpace=wrap;html=1;" vertex="1" parent="1">
          <mxGeometry x="-82.5" y="190" width="242.5" height="40" as="geometry" />
        </mxCell>
        <mxCell id="cKcwlgue6PO4gRso2J9z-19" style="edgeStyle=orthogonalEdgeStyle;rounded=0;orthogonalLoop=1;jettySize=auto;html=1;exitX=0.5;exitY=0;exitDx=0;exitDy=0;entryX=0;entryY=0.5;entryDx=0;entryDy=0;" edge="1" parent="1" source="cKcwlgue6PO4gRso2J9z-14" target="cKcwlgue6PO4gRso2J9z-18">
          <mxGeometry relative="1" as="geometry" />
        </mxCell>
        <mxCell id="cKcwlgue6PO4gRso2J9z-14" value="&lt;font style=&quot;font-size: 17px;&quot;&gt;Residual/Attention&lt;/font&gt;" style="rounded=0;whiteSpace=wrap;html=1;" vertex="1" parent="1">
          <mxGeometry x="-86.25" y="100" width="250" height="50" as="geometry" />
        </mxCell>
        <mxCell id="cKcwlgue6PO4gRso2J9z-20" style="edgeStyle=orthogonalEdgeStyle;rounded=0;orthogonalLoop=1;jettySize=auto;html=1;exitX=0.5;exitY=0;exitDx=0;exitDy=0;entryX=1;entryY=0.5;entryDx=0;entryDy=0;" edge="1" parent="1" source="cKcwlgue6PO4gRso2J9z-15" target="cKcwlgue6PO4gRso2J9z-18">
          <mxGeometry relative="1" as="geometry" />
        </mxCell>
        <mxCell id="cKcwlgue6PO4gRso2J9z-15" value="&lt;font style=&quot;font-size: 17px;&quot;&gt;Residual/Attention&lt;/font&gt;" style="rounded=0;whiteSpace=wrap;html=1;" vertex="1" parent="1">
          <mxGeometry x="236.5" y="100" width="250" height="50" as="geometry" />
        </mxCell>
        <mxCell id="cKcwlgue6PO4gRso2J9z-18" value="&lt;font style=&quot;font-size: 17px;&quot;&gt;Similarity&lt;/font&gt;" style="rounded=1;whiteSpace=wrap;html=1;" vertex="1" parent="1">
          <mxGeometry x="150" width="120" height="40" as="geometry" />
        </mxCell>
      </root>
    </mxGraphModel>
  </diagram>
</mxfile>
